<svg width="104" height="20" viewBox="0 0 104 20" fill="none" xmlns="http://www.w3.org/2000/svg">
<g filter="url(#filter0_d_1_383)">
<g clip-path="url(#clip0_1_383)">
<rect x="1" y="1" width="102" height="18" rx="9" fill="#192551"/>
<path d="M8.5 10C10.75 10 13 7.75 13 5.5C13 7.75 15.25 10 17.5 10C15.25 10 13 12.25 13 14.5C13 12.25 10.75 10 8.5 10Z" stroke="white" stroke-linecap="round" stroke-linejoin="round"/>
<path d="M15 6.5C15.8285 6.5 16.5 5.82842 16.5 5C16.5 5.82842 17.1715 6.5 18 6.5C17.1715 6.5 16.5 7.17158 16.5 8C16.5 7.17158 15.8285 6.5 15 6.5Z" stroke="white" stroke-linecap="round" stroke-linejoin="round"/>
<path d="M8 13.75C8.69036 13.75 9.25 13.1904 9.25 12.5C9.25 13.1904 9.80965 13.75 10.5 13.75C9.80965 13.75 9.25 14.3097 9.25 15C9.25 14.3097 8.69036 13.75 8 13.75Z" stroke="white" stroke-linecap="round" stroke-linejoin="round"/>
<path d="M24.027 5.27273H25.3906L28.3011 12.3807H28.4034L31.3097 5.27273H32.6733V14H31.6037V7.46307H31.5227L28.8423 13.9957H27.858L25.1818 7.46307H25.0966V14H24.027V5.27273ZM37.1673 14.1364C36.5707 14.1364 36.048 13.9957 35.5991 13.7145C35.1502 13.4332 34.8008 13.0398 34.5508 12.5341C34.3008 12.0284 34.1758 11.4375 34.1758 10.7614C34.1758 10.0795 34.3008 9.48437 34.5508 8.97585C34.8008 8.46733 35.1502 8.07244 35.5991 7.79119C36.048 7.50994 36.5707 7.36932 37.1673 7.36932C37.7667 7.36932 38.2894 7.50994 38.7355 7.79119C39.1843 8.07244 39.5338 8.46733 39.7838 8.97585C40.0338 9.48437 40.1588 10.0795 40.1588 10.7614C40.1588 11.4375 40.0338 12.0284 39.7838 12.5341C39.5338 13.0398 39.1843 13.4332 38.7355 13.7145C38.2894 13.9957 37.7667 14.1364 37.1673 14.1364ZM37.1715 13.1818C37.6034 13.1818 37.9599 13.0696 38.2412 12.8452C38.5224 12.6207 38.7312 12.3253 38.8676 11.9588C39.0039 11.5895 39.0721 11.1903 39.0721 10.7614C39.0721 10.3267 39.0039 9.92472 38.8676 9.5554C38.7312 9.18608 38.5224 8.88778 38.2412 8.66051C37.9599 8.43324 37.6034 8.3196 37.1715 8.3196C36.7369 8.3196 36.3789 8.43324 36.0977 8.66051C35.8164 8.88778 35.6076 9.18608 35.4713 9.5554C35.3349 9.92472 35.2667 10.3267 35.2667 10.7614C35.2667 11.1903 35.3349 11.5895 35.4713 11.9588C35.6076 12.3253 35.8164 12.6207 36.0977 12.8452C36.3789 13.0696 36.7369 13.1818 37.1715 13.1818ZM46.2593 8.95881L45.2834 9.2017C45.2295 9.05114 45.1485 8.90625 45.0405 8.76705C44.9326 8.625 44.7863 8.50852 44.6016 8.41761C44.417 8.3267 44.1826 8.28125 43.8985 8.28125C43.5093 8.28125 43.1854 8.36932 42.9269 8.54545C42.6684 8.72159 42.5391 8.94602 42.5391 9.21875C42.5391 9.46023 42.6272 9.65199 42.8033 9.79403C42.9795 9.93324 43.2564 10.0497 43.6343 10.1435L44.6314 10.3821C45.2195 10.5241 45.6584 10.7415 45.9482 11.0341C46.238 11.3239 46.3829 11.6974 46.3829 12.1548C46.3829 12.5355 46.2735 12.875 46.0547 13.1733C45.8388 13.4716 45.5363 13.7074 45.1471 13.8807C44.7579 14.0511 44.3062 14.1364 43.792 14.1364C43.1045 14.1364 42.5377 13.9886 42.0917 13.6932C41.6457 13.3949 41.3658 12.9631 41.2522 12.3977L42.292 12.1761C42.38 12.5199 42.5476 12.7784 42.7948 12.9517C43.0448 13.1222 43.3715 13.2074 43.7749 13.2074C44.2295 13.2074 44.5903 13.1108 44.8573 12.9176C45.1272 12.7244 45.2621 12.4915 45.2621 12.2188C45.2621 11.9972 45.184 11.8125 45.0278 11.6648C44.8715 11.5142 44.63 11.402 44.3033 11.3281L43.2082 11.0724C42.6059 10.9332 42.1627 10.7131 41.8786 10.4119C41.5974 10.1108 41.4567 9.73153 41.4567 9.27415C41.4567 8.90199 41.5618 8.57244 41.7721 8.28551C41.9823 7.99858 42.2707 7.77415 42.6371 7.61222C43.0064 7.45028 43.4255 7.36932 43.8942 7.36932C44.5618 7.36932 45.086 7.51562 45.4667 7.80824C45.8474 8.09801 46.1116 8.48153 46.2593 8.95881ZM50.6489 7.45455V8.35795H47.2014V7.45455H50.6489ZM48.1815 5.88636H49.2682V12.1122C49.2682 12.3849 49.308 12.5895 49.3875 12.7259C49.4699 12.8594 49.575 12.9503 49.7029 12.9986C49.8307 13.044 49.9671 13.0668 50.1119 13.0668C50.2199 13.0668 50.3094 13.0597 50.3804 13.0455C50.4543 13.0312 50.5125 13.0199 50.5551 13.0114L50.7682 13.9616C50.7 13.9872 50.602 14.0142 50.4742 14.0426C50.3463 14.071 50.1872 14.0852 49.9969 14.0852C49.6958 14.0881 49.406 14.0284 49.1276 13.9062C48.852 13.7812 48.6247 13.5923 48.4458 13.3395C48.2696 13.0866 48.1815 12.767 48.1815 12.3807V5.88636ZM55.3371 14V5.27273H58.3371C59.019 5.27273 59.5786 5.39631 60.0161 5.64347C60.4565 5.88778 60.7832 6.22017 60.9962 6.64062C61.2093 7.06108 61.3158 7.53267 61.3158 8.0554C61.3158 8.57528 61.2093 9.04687 60.9962 9.47017C60.786 9.89062 60.4607 10.2259 60.0204 10.4759C59.5829 10.723 59.0246 10.8466 58.3457 10.8466H56.2235V9.85795H58.286C58.7434 9.85795 59.1113 9.77841 59.3897 9.61932C59.6681 9.46023 59.8712 9.24574 59.9991 8.97585C60.1269 8.70312 60.1908 8.39631 60.1908 8.0554C60.1908 7.71165 60.1269 7.40483 59.9991 7.13494C59.8712 6.86506 59.6667 6.65341 59.3854 6.5C59.1042 6.34375 58.732 6.26562 58.269 6.26562H56.4749V14H55.3371ZM65.3485 14.1364C64.7519 14.1364 64.2292 13.9957 63.7804 13.7145C63.3315 13.4332 62.9821 13.0398 62.7321 12.5341C62.4821 12.0284 62.3571 11.4375 62.3571 10.7614C62.3571 10.0795 62.4821 9.48437 62.7321 8.97585C62.9821 8.46733 63.3315 8.07244 63.7804 7.79119C64.2292 7.50994 64.7519 7.36932 65.3485 7.36932C65.948 7.36932 66.4707 7.50994 66.9167 7.79119C67.3656 8.07244 67.715 8.46733 67.965 8.97585C68.215 9.48437 68.34 10.0795 68.34 10.7614C68.34 11.4375 68.215 12.0284 67.965 12.5341C67.715 13.0398 67.3656 13.4332 66.9167 13.7145C66.4707 13.9957 65.948 14.1364 65.3485 14.1364ZM65.3528 13.1818C65.7846 13.1818 66.1411 13.0696 66.4224 12.8452C66.7036 12.6207 66.9125 12.3253 67.0488 11.9588C67.1852 11.5895 67.2534 11.1903 67.2534 10.7614C67.2534 10.3267 67.1852 9.92472 67.0488 9.5554C66.9125 9.18608 66.7036 8.88778 66.4224 8.66051C66.1411 8.43324 65.7846 8.3196 65.3528 8.3196C64.9181 8.3196 64.5602 8.43324 64.2789 8.66051C63.9977 8.88778 63.7889 9.18608 63.6525 9.5554C63.5161 9.92472 63.448 10.3267 63.448 10.7614C63.448 11.1903 63.5161 11.5895 63.6525 11.9588C63.7889 12.3253 63.9977 12.6207 64.2789 12.8452C64.5602 13.0696 64.9181 13.1818 65.3528 13.1818ZM69.7232 16.4545V7.45455H70.78V8.49858H70.8951C70.9689 8.37926 71.0726 8.23153 71.2062 8.0554C71.3397 7.87642 71.53 7.71733 71.7772 7.57812C72.0272 7.43892 72.3624 7.36932 72.7829 7.36932C73.3255 7.36932 73.8056 7.50568 74.2232 7.77841C74.6437 8.05114 74.9718 8.44034 75.2076 8.94602C75.4462 9.4517 75.5655 10.0511 75.5655 10.7443C75.5655 11.4403 75.4476 12.0426 75.2118 12.5511C74.9761 13.0568 74.6493 13.4474 74.2317 13.723C73.817 13.9957 73.3383 14.1321 72.7957 14.1321C72.3837 14.1321 72.0513 14.0639 71.7985 13.9276C71.5457 13.7884 71.3496 13.6293 71.2104 13.4503C71.0741 13.2685 70.9689 13.1151 70.8951 12.9901H70.8099V16.4545H69.7232ZM70.7928 10.7273C70.7928 11.2102 70.8624 11.6364 71.0016 12.0057C71.1437 12.3722 71.3496 12.6591 71.6195 12.8665C71.8922 13.0739 72.2246 13.1776 72.6167 13.1776C73.0258 13.1776 73.3667 13.0696 73.6394 12.8537C73.915 12.6349 74.1224 12.3409 74.2616 11.9716C74.4036 11.5994 74.4746 11.1847 74.4746 10.7273C74.4746 10.2756 74.405 9.86932 74.2658 9.50852C74.1295 9.14489 73.9235 8.85795 73.6479 8.64773C73.3752 8.43466 73.0314 8.32812 72.6167 8.32812C72.2189 8.32812 71.8837 8.42898 71.611 8.63068C71.3411 8.82955 71.1366 9.10937 70.9974 9.47017C70.861 9.82812 70.7928 10.2472 70.7928 10.7273ZM81.0727 11.3111V7.45455H82.1593V14H81.0812V12.8835H81.013C80.8596 13.2216 80.6195 13.5071 80.2928 13.7401C79.969 13.9702 79.5599 14.0852 79.0656 14.0852C78.6536 14.0852 78.2872 13.9943 77.9661 13.8125C77.648 13.6307 77.398 13.358 77.2161 12.9943C77.0343 12.6278 76.942 12.1676 76.9391 11.6136V7.45455H78.0258V11.5199C78.0258 11.9886 78.1565 12.3622 78.4178 12.6406C78.682 12.919 79.0187 13.0582 79.4278 13.0582C79.6749 13.0582 79.9249 12.9957 80.1778 12.8707C80.4306 12.7457 80.6423 12.554 80.8127 12.2955C80.986 12.0369 81.0727 11.7088 81.0727 11.3111ZM84.9253 5.27273V14H83.8387V5.27273H84.9253ZM88.5351 14.1491C88.1203 14.1491 87.7439 14.071 87.4058 13.9148C87.0706 13.7585 86.8036 13.5312 86.6047 13.233C86.4058 12.9347 86.3064 12.5724 86.3064 12.1463C86.3064 11.7713 86.3788 11.4659 86.5237 11.2301C86.6714 10.9943 86.8675 10.8097 87.1118 10.6761C87.3589 10.5398 87.6317 10.4375 87.93 10.3693C88.2311 10.3011 88.5351 10.2486 88.8419 10.2116C89.2368 10.1605 89.5578 10.1207 89.805 10.0923C90.0521 10.0639 90.2325 10.017 90.3462 9.9517C90.4598 9.88636 90.5166 9.77415 90.5166 9.61506V9.58097C90.5166 9.17472 90.4044 8.85937 90.18 8.63494C89.9584 8.41051 89.6246 8.2983 89.1786 8.2983C88.7126 8.2983 88.3476 8.40057 88.0834 8.60511C87.8192 8.80966 87.6331 9.02983 87.5251 9.26562L86.4982 8.94602C86.6601 8.5483 86.8817 8.23437 87.1629 8.00426C87.447 7.77415 87.7609 7.6108 88.1047 7.5142C88.4513 7.41761 88.7993 7.36932 89.1487 7.36932C89.3732 7.36932 89.6246 7.39631 89.903 7.45028C90.1842 7.50426 90.4527 7.60938 90.7084 7.76562C90.9669 7.91903 91.18 8.14915 91.3476 8.45597C91.518 8.76278 91.6033 9.17045 91.6033 9.67898V14H90.5251V13.1136H90.474C90.403 13.2614 90.2865 13.4162 90.1246 13.5781C89.9655 13.7372 89.7538 13.8722 89.4896 13.983C89.2283 14.0938 88.9101 14.1491 88.5351 14.1491ZM88.7268 13.2116C89.1104 13.2116 89.4357 13.1364 89.7027 12.9858C89.9697 12.8352 90.1714 12.6392 90.3078 12.3977C90.447 12.1562 90.5166 11.902 90.5166 11.6349V10.7358C90.474 10.7841 90.3831 10.8295 90.2439 10.8722C90.1047 10.9119 89.9456 10.946 89.7666 10.9744C89.5876 11.0028 89.4129 11.0284 89.2425 11.0511C89.072 11.071 88.9342 11.0881 88.8291 11.1023C88.5706 11.1364 88.332 11.1903 88.1132 11.2642C87.8945 11.3381 87.7183 11.4489 87.5848 11.5966C87.4513 11.7415 87.3845 11.9375 87.3845 12.1847C87.3845 12.5256 87.5109 12.7827 87.7638 12.956C88.0166 13.1264 88.3376 13.2116 88.7268 13.2116ZM93.2784 14V7.45455H94.3309V8.46023H94.3991C94.5184 8.12784 94.7329 7.8608 95.0426 7.65909C95.3522 7.45455 95.7017 7.35227 96.0909 7.35227C96.1647 7.35227 96.2571 7.35511 96.3679 7.3608C96.4787 7.36364 96.5639 7.3679 96.6235 7.37358V8.45597C96.5838 8.4446 96.5014 8.4304 96.3764 8.41335C96.2542 8.39347 96.1264 8.38352 95.9929 8.38352C95.6804 8.38352 95.4019 8.44886 95.1576 8.57955C94.9133 8.71023 94.7201 8.89062 94.5781 9.12074C94.436 9.34801 94.365 9.60795 94.365 9.90057V14H93.2784Z" fill="white"/>
</g>
</g>
<defs>
<filter id="filter0_d_1_383" x="0" y="0" width="104" height="20" filterUnits="userSpaceOnUse" color-interpolation-filters="sRGB">
<feFlood flood-opacity="0" result="BackgroundImageFix"/>
<feColorMatrix in="SourceAlpha" type="matrix" values="0 0 0 0 0 0 0 0 0 0 0 0 0 0 0 0 0 0 127 0" result="hardAlpha"/>
<feMorphology radius="1" operator="dilate" in="SourceAlpha" result="effect1_dropShadow_1_383"/>
<feOffset/>
<feComposite in2="hardAlpha" operator="out"/>
<feColorMatrix type="matrix" values="0 0 0 0 0.223529 0 0 0 0 0.376471 0 0 0 0 0.976471 0 0 0 0.8 0"/>
<feBlend mode="normal" in2="BackgroundImageFix" result="effect1_dropShadow_1_383"/>
<feBlend mode="normal" in="SourceGraphic" in2="effect1_dropShadow_1_383" result="shape"/>
</filter>
<clipPath id="clip0_1_383">
<rect x="1" y="1" width="102" height="18" rx="9" fill="white"/>
</clipPath>
</defs>
</svg>
