<svg width="17" height="14" viewBox="0 0 17 14" fill="none" xmlns="http://www.w3.org/2000/svg">
<path d="M16.7482 1.70076C16.1473 1.96614 15.513 2.132 14.8454 2.23152C15.513 1.83345 16.0471 1.20318 16.2808 0.440214C15.6466 0.805109 14.9455 1.07049 14.1777 1.23635C13.5768 0.606075 12.7089 0.208008 11.7742 0.208008C9.97154 0.208008 8.50272 1.66759 8.50272 3.45889C8.50272 3.72427 8.5361 3.95648 8.60286 4.18868C5.89889 4.05599 3.46197 2.76227 1.82623 0.771937C1.55917 1.26952 1.39226 1.80028 1.39226 2.39738C1.39226 3.52524 1.95976 4.52041 2.86109 5.11751C2.32697 5.08433 1.82623 4.95165 1.35888 4.71944V4.75261C1.35888 6.34488 2.49388 7.67177 3.99609 7.97032C3.72903 8.03667 3.42859 8.06984 3.12814 8.06984C2.92785 8.06984 2.69417 8.03667 2.49388 8.0035C2.92785 9.29721 4.12962 10.2592 5.56506 10.2592C4.43006 11.1217 3.028 11.6524 1.49241 11.6524C1.22535 11.6524 0.958286 11.6524 0.724609 11.6193C2.19344 12.5481 3.89594 13.0789 5.76536 13.0789C11.8076 13.0789 15.1124 8.10301 15.1124 3.79061C15.1124 3.65793 15.1124 3.49206 15.1124 3.35938C15.7467 2.92814 16.3142 2.36421 16.7482 1.70076Z" fill="white"/>
</svg>
