<svg width="21" height="20" viewBox="0 0 21 20" fill="none" xmlns="http://www.w3.org/2000/svg">
<path d="M10.3139 2.08608C12.9076 2.08608 13.2148 2.09574 14.2394 2.14216C14.8555 2.14965 15.4657 2.26206 16.0435 2.47451C16.4625 2.63509 16.8431 2.88108 17.1606 3.19665C17.4782 3.51222 17.7257 3.89037 17.8873 4.30676C18.1011 4.88095 18.2143 5.48731 18.2218 6.09949C18.2681 7.11766 18.2782 7.42289 18.2782 10.0003C18.2782 12.5777 18.2685 12.8829 18.2218 13.9011C18.2143 14.5132 18.1011 15.1196 17.8873 15.6938C17.7257 16.1102 17.4782 16.4883 17.1606 16.8039C16.8431 17.1195 16.4625 17.3655 16.0435 17.526C15.4657 17.7385 14.8555 17.8509 14.2394 17.8584C13.2152 17.9044 12.9081 17.9145 10.3139 17.9145C7.71972 17.9145 7.41257 17.9048 6.3884 17.8584C5.77234 17.8509 5.16214 17.7385 4.58432 17.526C4.16529 17.3655 3.78474 17.1195 3.46718 16.8039C3.14961 16.4883 2.90205 16.1102 2.74045 15.6938C2.52667 15.1196 2.41354 14.5132 2.406 13.9011C2.35975 12.8829 2.34957 12.5777 2.34957 10.0003C2.34957 7.42289 2.35928 7.11766 2.406 6.09949C2.41354 5.48731 2.52667 4.88095 2.74045 4.30676C2.90205 3.89037 3.14961 3.51222 3.46718 3.19665C3.78474 2.88108 4.16529 2.63509 4.58432 2.47451C5.16214 2.26206 5.77234 2.14965 6.3884 2.14216C7.41303 2.0962 7.72018 2.08608 10.3139 2.08608ZM10.3139 0.34668C7.67716 0.34668 7.34503 0.357712 6.30884 0.404598C5.50257 0.420534 4.70487 0.572232 3.94965 0.85324C3.3018 1.09579 2.71501 1.4759 2.23022 1.96703C1.73553 2.44894 1.3527 3.03236 1.10845 3.67655C0.825666 4.42701 0.673007 5.2197 0.65697 6.02088C0.610711 7.04963 0.599609 7.37968 0.599609 9.99981C0.599609 12.62 0.610711 12.95 0.657895 13.9797C0.673932 14.7809 0.826591 15.5735 1.10938 16.324C1.35335 16.9681 1.73587 17.5515 2.23022 18.0335C2.71528 18.5248 3.30239 18.9049 3.95058 19.1473C4.70579 19.4283 5.5035 19.58 6.30976 19.5959C7.34595 19.6419 7.6767 19.6539 10.3148 19.6539C12.9529 19.6539 13.2837 19.6428 14.3199 19.5959C15.1262 19.58 15.9239 19.4283 16.6791 19.1473C17.3242 18.8988 17.91 18.5193 18.3991 18.033C18.8882 17.5467 19.2697 16.9643 19.5193 16.3231C19.8021 15.5726 19.9548 14.7799 19.9708 13.9787C20.0171 12.95 20.0282 12.62 20.0282 9.99981C20.0282 7.37968 20.0171 7.04963 19.9699 6.01996C19.9539 5.21878 19.8012 4.42609 19.5184 3.67563C19.2745 3.03153 18.8919 2.44811 18.3976 1.96611C17.9125 1.47487 17.3254 1.09476 16.6772 0.85232C15.922 0.571313 15.1243 0.419615 14.318 0.403679C13.2828 0.357712 12.9506 0.34668 10.3139 0.34668Z" fill="white"/>
<path d="M10.3108 5.04199C9.32415 5.04199 8.35967 5.33272 7.53931 5.87742C6.71896 6.42211 6.07957 7.19631 5.702 8.1021C5.32443 9.0079 5.22564 10.0046 5.41812 10.9662C5.6106 11.9278 6.08571 12.8111 6.78337 13.5043C7.48103 14.1976 8.3699 14.6697 9.33758 14.861C10.3053 15.0522 11.3083 14.9541 12.2198 14.5789C13.1313 14.2037 13.9104 13.5683 14.4586 12.7531C15.0067 11.9379 15.2993 10.9795 15.2993 9.99911C15.2993 8.6844 14.7737 7.42354 13.8382 6.4939C12.9027 5.56426 11.6338 5.04199 10.3108 5.04199ZM10.3108 13.2168C9.67035 13.2168 9.0443 13.0281 8.5118 12.6745C7.97929 12.321 7.56426 11.8184 7.31918 11.2305C7.07409 10.6425 7.00997 9.99554 7.13491 9.37136C7.25985 8.74719 7.56825 8.17385 8.02111 7.72384C8.47396 7.27384 9.05094 6.96738 9.67907 6.84322C10.3072 6.71907 10.9583 6.78279 11.55 7.02633C12.1416 7.26987 12.6474 7.68229 13.0032 8.21144C13.359 8.74059 13.5489 9.3627 13.5489 9.99911C13.5489 10.8525 13.2077 11.6709 12.6005 12.2744C11.9932 12.8778 11.1696 13.2168 10.3108 13.2168Z" fill="white"/>
<path d="M15.4997 6.00523C16.1435 6.00523 16.6654 5.48661 16.6654 4.84685C16.6654 4.2071 16.1435 3.68848 15.4997 3.68848C14.8559 3.68848 14.334 4.2071 14.334 4.84685C14.334 5.48661 14.8559 6.00523 15.4997 6.00523Z" fill="white"/>
</svg>
