<svg width="19" height="19" viewBox="0 0 19 19" fill="none" xmlns="http://www.w3.org/2000/svg">
<path fill-rule="evenodd" clip-rule="evenodd" d="M9.70828 0.34668C4.55882 0.34668 0.416016 4.4634 0.416016 9.58045C0.416016 13.6587 3.08754 17.1214 6.76573 18.3525C7.23034 18.4295 7.38521 18.1602 7.38521 17.8908C7.38521 17.66 7.38521 17.0829 7.38521 16.3134C4.79112 16.8905 4.24907 15.0822 4.24907 15.0822C3.82318 14.005 3.20369 13.7356 3.20369 13.7356C2.3519 13.1585 3.28113 13.1585 3.28113 13.1585C4.21036 13.2355 4.71369 14.1204 4.71369 14.1204C5.52676 15.5439 6.88188 15.1207 7.42393 14.8899C7.50137 14.2743 7.73367 13.8895 8.0047 13.6587C5.95266 13.4278 3.78446 12.6199 3.78446 9.08028C3.78446 8.07996 4.13292 7.23353 4.7524 6.61795C4.67497 6.3871 4.32651 5.46372 4.82984 4.15561C4.82984 4.15561 5.6042 3.92476 7.38521 5.11746C8.12085 4.92509 8.93392 4.80967 9.70828 4.80967C10.4826 4.80967 11.2957 4.92509 12.0313 5.11746C13.8124 3.92476 14.5867 4.15561 14.5867 4.15561C15.09 5.42525 14.7803 6.34863 14.6642 6.61795C15.2449 7.272 15.6321 8.07996 15.6321 9.08028C15.6321 12.6199 13.4639 13.3894 11.3731 13.6202C11.7216 13.8895 11.9926 14.4666 11.9926 15.3131C11.9926 16.5442 11.9926 17.5446 11.9926 17.8524C11.9926 18.0832 12.1475 18.391 12.6508 18.314C16.329 17.1214 19.0005 13.6587 19.0005 9.58045C19.0005 4.4634 14.8577 0.34668 9.70828 0.34668Z" fill="white"/>
</svg>
