<svg width="124" height="20" viewBox="0 0 124 20" fill="none" xmlns="http://www.w3.org/2000/svg">
<g opacity="0.9">
<path d="M9.25805 3.12292C9.56721 2.51632 10.4339 2.51632 10.743 3.12292L12.566 6.69993C12.687 6.93735 12.9142 7.10259 13.1774 7.14451L17.1398 7.77557C17.8114 7.88253 18.079 8.70551 17.5987 9.18701L14.762 12.0313C14.5741 12.2197 14.4875 12.4865 14.529 12.7494L15.1541 16.7189C15.26 17.3912 14.5591 17.9 13.9527 17.5912L10.3788 15.7705C10.1411 15.6494 9.85996 15.6494 9.6223 15.7705L6.04837 17.5912C5.44199 17.9 4.74104 17.3912 4.84692 16.7189L5.47216 12.7494C5.51356 12.4865 5.42694 12.2197 5.23902 12.0313L2.40235 9.18701C1.92213 8.70551 2.18974 7.88253 2.86133 7.77557L6.82373 7.14451C7.0869 7.10259 7.31415 6.93735 7.43514 6.69993L9.25805 3.12292Z" fill="white" stroke="white" stroke-width="1.5" stroke-linejoin="round"/>
<path d="M35.258 3.12292C35.5672 2.51632 36.4339 2.51632 36.743 3.12292L38.566 6.69993C38.687 6.93735 38.9142 7.10259 39.1774 7.14451L43.1398 7.77557C43.8114 7.88253 44.079 8.70551 43.5987 9.18701L40.762 12.0313C40.5741 12.2197 40.4875 12.4865 40.529 12.7494L41.1541 16.7189C41.26 17.3912 40.5591 17.9 39.9527 17.5912L36.3788 15.7705C36.1411 15.6494 35.86 15.6494 35.6223 15.7705L32.0484 17.5912C31.442 17.9 30.741 17.3912 30.8469 16.7189L31.4722 12.7494C31.5136 12.4865 31.4269 12.2197 31.239 12.0313L28.4024 9.18701C27.9221 8.70551 28.1897 7.88253 28.8613 7.77557L32.8237 7.14451C33.0869 7.10259 33.3141 6.93735 33.4351 6.69993L35.258 3.12292Z" fill="white" stroke="white" stroke-width="1.5" stroke-linejoin="round"/>
<path d="M61.258 3.12292C61.5672 2.51632 62.4339 2.51632 62.743 3.12292L64.566 6.69993C64.687 6.93735 64.9142 7.10259 65.1774 7.14451L69.1398 7.77557C69.8114 7.88253 70.079 8.70551 69.5987 9.18701L66.762 12.0313C66.5741 12.2197 66.4875 12.4865 66.529 12.7494L67.1541 16.7189C67.26 17.3912 66.5591 17.9 65.9527 17.5912L62.3788 15.7705C62.1411 15.6494 61.86 15.6494 61.6223 15.7705L58.0484 17.5912C57.442 17.9 56.741 17.3912 56.8469 16.7189L57.4722 12.7494C57.5136 12.4865 57.4269 12.2197 57.239 12.0313L54.4024 9.18701C53.9221 8.70551 54.1897 7.88253 54.8613 7.77557L58.8237 7.14451C59.0869 7.10259 59.3141 6.93735 59.4351 6.69993L61.258 3.12292Z" fill="white" stroke="white" stroke-width="1.5" stroke-linejoin="round"/>
<path d="M87.258 3.12292C87.5672 2.51632 88.4339 2.51632 88.743 3.12292L90.566 6.69993C90.687 6.93735 90.9142 7.10259 91.1774 7.14451L95.1398 7.77557C95.8114 7.88253 96.079 8.70551 95.5987 9.18701L92.762 12.0313C92.5741 12.2197 92.4875 12.4865 92.529 12.7494L93.1541 16.7189C93.26 17.3912 92.5591 17.9 91.9527 17.5912L88.3788 15.7705C88.1411 15.6494 87.86 15.6494 87.6223 15.7705L84.0484 17.5912C83.442 17.9 82.741 17.3912 82.8469 16.7189L83.4722 12.7494C83.5136 12.4865 83.4269 12.2197 83.239 12.0313L80.4024 9.18701C79.9221 8.70551 80.1897 7.88253 80.8613 7.77557L84.8237 7.14451C85.0869 7.10259 85.3141 6.93735 85.4351 6.69993L87.258 3.12292Z" fill="white" stroke="white" stroke-width="1.5" stroke-linejoin="round"/>
<path d="M113.258 3.12292C113.567 2.51632 114.434 2.51632 114.743 3.12292L116.566 6.69993C116.687 6.93735 116.914 7.10259 117.177 7.14451L121.14 7.77557C121.811 7.88253 122.079 8.70551 121.599 9.18701L118.762 12.0313C118.574 12.2197 118.488 12.4865 118.529 12.7494L119.154 16.7189C119.26 17.3912 118.559 17.9 117.953 17.5912L114.379 15.7705C114.141 15.6494 113.86 15.6494 113.622 15.7705L110.048 17.5912C109.442 17.9 108.741 17.3912 108.847 16.7189L109.472 12.7494C109.514 12.4865 109.427 12.2197 109.239 12.0313L106.402 9.18701C105.922 8.70551 106.19 7.88253 106.861 7.77557L110.824 7.14451C111.087 7.10259 111.314 6.93735 111.435 6.69993L113.258 3.12292Z" fill="white" stroke="white" stroke-width="1.5" stroke-linejoin="round"/>
</g>
</svg>
