<svg width="90" height="20" viewBox="0 0 90 20" fill="none" xmlns="http://www.w3.org/2000/svg">
<g filter="url(#filter0_d_1_461)">
<g clip-path="url(#clip0_1_461)">
<rect x="1" y="1" width="88" height="18" rx="9" fill="#192551"/>
<path d="M8.5 10C10.75 10 13 7.75 13 5.5C13 7.75 15.25 10 17.5 10C15.25 10 13 12.25 13 14.5C13 12.25 10.75 10 8.5 10Z" stroke="white" stroke-linecap="round" stroke-linejoin="round"/>
<path d="M15 6.5C15.8285 6.5 16.5 5.82842 16.5 5C16.5 5.82842 17.1715 6.5 18 6.5C17.1715 6.5 16.5 7.17158 16.5 8C16.5 7.17158 15.8285 6.5 15 6.5Z" stroke="white" stroke-linecap="round" stroke-linejoin="round"/>
<path d="M8 13.75C8.69036 13.75 9.25 13.1904 9.25 12.5C9.25 13.1904 9.80965 13.75 10.5 13.75C9.80965 13.75 9.25 14.3097 9.25 15C9.25 14.3097 8.69036 13.75 8 13.75Z" stroke="white" stroke-linecap="round" stroke-linejoin="round"/>
<path d="M24.027 14V5.27273H25.1648V9.12926H29.7244V5.27273H30.8622V14H29.7244V10.1264H25.1648V14H24.027ZM32.6737 14V7.45455H33.7603V14H32.6737ZM33.2277 6.3892C33.0231 6.3892 32.8484 6.32102 32.7035 6.18466C32.5586 6.04545 32.4862 5.87784 32.4862 5.68182C32.4862 5.48864 32.5586 5.32386 32.7035 5.1875C32.8484 5.0483 33.0231 4.97869 33.2277 4.97869C33.4294 4.97869 33.6027 5.0483 33.7475 5.1875C33.8953 5.32386 33.9691 5.48864 33.9691 5.68182C33.9691 5.87784 33.8953 6.04545 33.7475 6.18466C33.6027 6.32102 33.4294 6.3892 33.2277 6.3892ZM38.1243 16.5909C37.6272 16.5909 37.1996 16.527 36.8417 16.3991C36.4866 16.2713 36.1925 16.1037 35.9596 15.8963C35.7266 15.6889 35.5448 15.4659 35.4141 15.2273L36.3047 14.6989C36.39 14.8182 36.5008 14.9531 36.6371 15.1037C36.7735 15.2543 36.9596 15.3849 37.1954 15.4957C37.434 15.6065 37.7451 15.6619 38.1286 15.6619C38.6428 15.6619 39.0675 15.5369 39.4028 15.2869C39.738 15.0398 39.9056 14.6477 39.9056 14.1108V12.794H39.8204C39.7465 12.919 39.64 13.0696 39.5008 13.2457C39.3644 13.419 39.1698 13.571 38.917 13.7017C38.667 13.8324 38.3332 13.8977 37.9155 13.8977C37.39 13.8977 36.9184 13.7741 36.5008 13.527C36.086 13.2798 35.7564 12.9176 35.5121 12.4403C35.2707 11.9631 35.1499 11.3807 35.1499 10.6932C35.1499 10.017 35.2678 9.4304 35.5036 8.93324C35.7394 8.43324 36.0661 8.0483 36.4837 7.77841C36.9042 7.50568 37.3871 7.36932 37.9326 7.36932C38.3502 7.36932 38.684 7.43892 38.934 7.57812C39.1868 7.71733 39.3814 7.87642 39.5178 8.0554C39.6542 8.23153 39.7607 8.37926 39.8374 8.49858H39.9354V7.45455H40.988V14.1747C40.988 14.7372 40.8601 15.196 40.6045 15.5511C40.3488 15.9063 40.0036 16.1676 39.5689 16.3352C39.1371 16.5057 38.6556 16.5909 38.1243 16.5909ZM38.0945 12.9474C38.4866 12.9474 38.8175 12.858 39.0874 12.679C39.3601 12.4972 39.5675 12.2372 39.7096 11.8991C39.8516 11.5582 39.9226 11.152 39.9226 10.6804C39.9226 10.2173 39.853 9.80966 39.7138 9.45739C39.5746 9.10227 39.3687 8.82528 39.0959 8.62642C38.8261 8.42756 38.4922 8.32812 38.0945 8.32812C37.6826 8.32812 37.3388 8.43324 37.0633 8.64347C36.7877 8.85369 36.5817 9.13636 36.4454 9.49148C36.309 9.84659 36.2408 10.2429 36.2408 10.6804C36.2408 11.1264 36.3104 11.5199 36.4496 11.8608C36.5888 12.2017 36.7962 12.4688 37.0718 12.6619C37.3474 12.8523 37.6883 12.9474 38.0945 12.9474ZM43.7625 10.0795V14H42.6759V5.27273H43.7583V8.49006H43.8435C43.9969 8.14631 44.2284 7.87358 44.5381 7.67188C44.8477 7.47017 45.2597 7.36932 45.7739 7.36932C46.2199 7.36932 46.6105 7.45881 46.9458 7.63778C47.281 7.81676 47.5409 8.08949 47.7256 8.45597C47.9131 8.82244 48.0068 9.28409 48.0068 9.84091V14H46.9202V9.93466C46.923 9.42614 46.7923 9.03267 46.5281 8.75426C46.2668 8.47301 45.9046 8.33239 45.4415 8.33239C45.1205 8.33239 44.8321 8.40057 44.5764 8.53693C44.3236 8.6733 44.1247 8.87216 43.9798 9.13352C43.835 9.39205 43.7625 9.70739 43.7625 10.0795ZM56.6614 9.14205V10.1307H52.8261V9.14205H56.6614ZM61.6128 14V5.27273H66.9395V6.26989H62.7506V9.12926H66.6667V10.1264H62.7506V13.0028H67.0034V14H61.6128ZM69.6469 10.0795V14H68.5602V7.45455H69.6085V8.49006H69.6938C69.8472 8.15199 70.0815 7.88068 70.3969 7.67614C70.7122 7.47159 71.1156 7.36932 71.6071 7.36932C72.0531 7.36932 72.4423 7.46023 72.7747 7.64205C73.1071 7.82386 73.3656 8.09801 73.5503 8.46449C73.735 8.82812 73.8273 9.28693 73.8273 9.84091V14H72.7406V9.93466C72.7406 9.43182 72.61 9.03977 72.3486 8.75852C72.0901 8.47443 71.7321 8.33239 71.2747 8.33239C70.9622 8.33239 70.6838 8.40057 70.4395 8.53693C70.1952 8.6733 70.002 8.87216 69.86 9.13352C69.7179 9.39205 69.6469 9.70739 69.6469 10.0795ZM77.974 14.1321C77.4342 14.1321 76.9555 13.9957 76.5379 13.723C76.1231 13.4474 75.7978 13.0568 75.562 12.5511C75.3262 12.0426 75.2084 11.4403 75.2084 10.7443C75.2084 10.0511 75.3262 9.4517 75.562 8.94602C75.7978 8.44034 76.1245 8.05114 76.5422 7.77841C76.9626 7.50568 77.4456 7.36932 77.991 7.36932C78.4086 7.36932 78.741 7.43892 78.9882 7.57812C79.2382 7.71733 79.4299 7.87642 79.5635 8.0554C79.6998 8.23153 79.8049 8.37926 79.8788 8.49858H79.9598V5.27273H81.0464V14H79.9939V12.9901H79.8788C79.8021 13.1151 79.6941 13.2685 79.5549 13.4503C79.4186 13.6293 79.224 13.7884 78.9711 13.9276C78.7211 14.0639 78.3887 14.1321 77.974 14.1321ZM78.153 13.1776C78.545 13.1776 78.876 13.0739 79.1459 12.8665C79.4186 12.6591 79.626 12.3722 79.768 12.0057C79.9101 11.6364 79.9811 11.2102 79.9811 10.7273C79.9811 10.2472 79.9115 9.82812 79.7723 9.47017C79.6331 9.10937 79.4271 8.82955 79.1544 8.63068C78.8845 8.42898 78.5507 8.32812 78.153 8.32812C77.741 8.32812 77.3973 8.43466 77.1217 8.64773C76.8461 8.85795 76.6402 9.14489 76.5038 9.50852C76.3674 9.86932 76.2993 10.2756 76.2993 10.7273C76.2993 11.1847 76.3689 11.5994 76.5081 11.9716C76.6473 12.3409 76.8547 12.6349 77.1302 12.8537C77.4058 13.0696 77.7467 13.1776 78.153 13.1776Z" fill="white"/>
</g>
</g>
<defs>
<filter id="filter0_d_1_461" x="0" y="0" width="90" height="20" filterUnits="userSpaceOnUse" color-interpolation-filters="sRGB">
<feFlood flood-opacity="0" result="BackgroundImageFix"/>
<feColorMatrix in="SourceAlpha" type="matrix" values="0 0 0 0 0 0 0 0 0 0 0 0 0 0 0 0 0 0 127 0" result="hardAlpha"/>
<feMorphology radius="1" operator="dilate" in="SourceAlpha" result="effect1_dropShadow_1_461"/>
<feOffset/>
<feComposite in2="hardAlpha" operator="out"/>
<feColorMatrix type="matrix" values="0 0 0 0 0.223529 0 0 0 0 0.376471 0 0 0 0 0.976471 0 0 0 0.8 0"/>
<feBlend mode="normal" in2="BackgroundImageFix" result="effect1_dropShadow_1_461"/>
<feBlend mode="normal" in="SourceGraphic" in2="effect1_dropShadow_1_461" result="shape"/>
</filter>
<clipPath id="clip0_1_461">
<rect x="1" y="1" width="88" height="18" rx="9" fill="white"/>
</clipPath>
</defs>
</svg>
