<svg width="69" height="20" viewBox="0 0 69 20" fill="none" xmlns="http://www.w3.org/2000/svg">
<g filter="url(#filter0_d_1_305)">
<g clip-path="url(#clip0_1_305)">
<rect x="1" y="1" width="67" height="18" rx="9" fill="#192551"/>
<path d="M8.5 10C10.75 10 13 7.75 13 5.5C13 7.75 15.25 10 17.5 10C15.25 10 13 12.25 13 14.5C13 12.25 10.75 10 8.5 10Z" stroke="white" stroke-linecap="round" stroke-linejoin="round"/>
<path d="M15 6.5C15.8285 6.5 16.5 5.82842 16.5 5C16.5 5.82842 17.1715 6.5 18 6.5C17.1715 6.5 16.5 7.17158 16.5 8C16.5 7.17158 15.8285 6.5 15 6.5Z" stroke="white" stroke-linecap="round" stroke-linejoin="round"/>
<path d="M8 13.75C8.69036 13.75 9.25 13.1904 9.25 12.5C9.25 13.1904 9.80965 13.75 10.5 13.75C9.80965 13.75 9.25 14.3097 9.25 15C9.25 14.3097 8.69036 13.75 8 13.75Z" stroke="white" stroke-linecap="round" stroke-linejoin="round"/>
<path d="M28.7955 7.48864C28.7472 7.06534 28.5455 6.73722 28.1903 6.50426C27.8381 6.26847 27.402 6.15057 26.8821 6.15057C26.5043 6.15057 26.1747 6.21165 25.8935 6.33381C25.6151 6.45312 25.3977 6.61932 25.2415 6.83239C25.0852 7.04261 25.0071 7.28267 25.0071 7.55256C25.0071 7.77699 25.0611 7.97017 25.169 8.1321C25.277 8.29403 25.4162 8.42898 25.5866 8.53693C25.7599 8.64205 25.9418 8.72869 26.1321 8.79688C26.3224 8.86506 26.5 8.92045 26.6648 8.96307L27.5426 9.19744C27.7841 9.25994 28.0469 9.34659 28.331 9.45739C28.6151 9.56534 28.8835 9.71165 29.1364 9.89631C29.392 10.0781 29.6023 10.3097 29.767 10.5909C29.9318 10.8722 30.0142 11.2145 30.0142 11.6179C30.0142 12.0952 29.8892 12.5256 29.6392 12.9091C29.392 13.2898 29.0313 13.5923 28.5568 13.8168C28.0852 14.0384 27.5114 14.1491 26.8352 14.1491C26.2017 14.1491 25.6534 14.0483 25.1903 13.8466C24.7301 13.642 24.3679 13.3565 24.1037 12.9901C23.8423 12.6236 23.6946 12.1932 23.6605 11.6989H24.8239C24.8494 12.0256 24.9574 12.2955 25.1477 12.5085C25.3381 12.7216 25.581 12.8793 25.8764 12.9815C26.1719 13.0838 26.4915 13.1349 26.8352 13.1349C27.2273 13.1349 27.5795 13.071 27.892 12.9432C28.2045 12.8153 28.4517 12.6378 28.6335 12.4105C28.8153 12.1804 28.9062 11.9105 28.9062 11.6009C28.9062 11.3224 28.8267 11.0952 28.6676 10.919C28.5114 10.7401 28.3026 10.5952 28.0412 10.4844C27.7827 10.3707 27.5 10.2727 27.1932 10.1903L26.1321 9.88778C25.4446 9.6946 24.9006 9.41619 24.5 9.05256C24.0994 8.68608 23.8991 8.20597 23.8991 7.61222C23.8991 7.1179 24.0327 6.6875 24.2997 6.32102C24.5668 5.9517 24.9276 5.66477 25.3821 5.46023C25.8395 5.25568 26.3509 5.15341 26.9162 5.15341C27.4872 5.15341 27.9929 5.25426 28.4332 5.45597C28.8764 5.65767 29.2273 5.93466 29.4858 6.28693C29.7443 6.6392 29.8807 7.03977 29.8949 7.48864H28.7955ZM34.3654 7.45455V8.35795H30.918V7.45455H34.3654ZM31.8981 5.88636H32.9848V12.1122C32.9848 12.3849 33.0245 12.5895 33.1041 12.7259C33.1865 12.8594 33.2916 12.9503 33.4194 12.9986C33.5473 13.044 33.6836 13.0668 33.8285 13.0668C33.9365 13.0668 34.026 13.0597 34.097 13.0455C34.1708 13.0312 34.2291 13.0199 34.2717 13.0114L34.4848 13.9616C34.4166 13.9872 34.3186 14.0142 34.1907 14.0426C34.0629 14.071 33.9038 14.0852 33.7135 14.0852C33.4123 14.0881 33.1225 14.0284 32.8441 13.9062C32.5686 13.7812 32.3413 13.5923 32.1623 13.3395C31.9862 13.0866 31.8981 12.767 31.8981 12.3807V5.88636ZM37.6513 14.1491C37.2366 14.1491 36.8601 14.071 36.5221 13.9148C36.1868 13.7585 35.9198 13.5312 35.7209 13.233C35.5221 12.9347 35.4226 12.5724 35.4226 12.1463C35.4226 11.7713 35.4951 11.4659 35.64 11.2301C35.7877 10.9943 35.9837 10.8097 36.228 10.6761C36.4752 10.5398 36.7479 10.4375 37.0462 10.3693C37.3474 10.3011 37.6513 10.2486 37.9582 10.2116C38.353 10.1605 38.6741 10.1207 38.9212 10.0923C39.1684 10.0639 39.3488 10.017 39.4624 9.9517C39.5761 9.88636 39.6329 9.77415 39.6329 9.61506V9.58097C39.6329 9.17472 39.5207 8.85937 39.2962 8.63494C39.0746 8.41051 38.7408 8.2983 38.2948 8.2983C37.8289 8.2983 37.4638 8.40057 37.1996 8.60511C36.9354 8.80966 36.7493 9.02983 36.6414 9.26562L35.6144 8.94602C35.7763 8.5483 35.9979 8.23437 36.2792 8.00426C36.5633 7.77415 36.8772 7.6108 37.2209 7.5142C37.5675 7.41761 37.9155 7.36932 38.265 7.36932C38.4894 7.36932 38.7408 7.39631 39.0192 7.45028C39.3005 7.50426 39.5689 7.60938 39.8246 7.76562C40.0832 7.91903 40.2962 8.14915 40.4638 8.45597C40.6343 8.76278 40.7195 9.17045 40.7195 9.67898V14H39.6414V13.1136H39.5903C39.5192 13.2614 39.4028 13.4162 39.2408 13.5781C39.0817 13.7372 38.8701 13.8722 38.6059 13.983C38.3445 14.0938 38.0263 14.1491 37.6513 14.1491ZM37.8431 13.2116C38.2266 13.2116 38.5519 13.1364 38.8189 12.9858C39.086 12.8352 39.2877 12.6392 39.4241 12.3977C39.5633 12.1562 39.6329 11.902 39.6329 11.6349V10.7358C39.5903 10.7841 39.4993 10.8295 39.3601 10.8722C39.2209 10.9119 39.0618 10.946 38.8829 10.9744C38.7039 11.0028 38.5292 11.0284 38.3587 11.0511C38.1883 11.071 38.0505 11.0881 37.9454 11.1023C37.6868 11.1364 37.4482 11.1903 37.2295 11.2642C37.0107 11.3381 36.8346 11.4489 36.7011 11.5966C36.5675 11.7415 36.5008 11.9375 36.5008 12.1847C36.5008 12.5256 36.6272 12.7827 36.88 12.956C37.1329 13.1264 37.4539 13.2116 37.8431 13.2116ZM42.3946 14V7.45455H43.4472V8.46023H43.5154C43.6347 8.12784 43.8492 7.8608 44.1588 7.65909C44.4685 7.45455 44.8179 7.35227 45.2071 7.35227C45.281 7.35227 45.3733 7.35511 45.4841 7.3608C45.5949 7.36364 45.6801 7.3679 45.7398 7.37358V8.45597C45.7 8.4446 45.6176 8.4304 45.4926 8.41335C45.3705 8.39347 45.2426 8.38352 45.1091 8.38352C44.7966 8.38352 44.5182 8.44886 44.2739 8.57955C44.0296 8.71023 43.8364 8.89062 43.6943 9.12074C43.5523 9.34801 43.4813 9.60795 43.4813 9.90057V14H42.3946ZM50.0953 7.45455V8.35795H46.6478V7.45455H50.0953ZM47.628 5.88636H48.7146V12.1122C48.7146 12.3849 48.7544 12.5895 48.8339 12.7259C48.9163 12.8594 49.0214 12.9503 49.1493 12.9986C49.2771 13.044 49.4135 13.0668 49.5584 13.0668C49.6663 13.0668 49.7558 13.0597 49.8268 13.0455C49.9007 13.0312 49.9589 13.0199 50.0015 13.0114L50.2146 13.9616C50.1464 13.9872 50.0484 14.0142 49.9206 14.0426C49.7927 14.071 49.6336 14.0852 49.4433 14.0852C49.1422 14.0881 48.8524 14.0284 48.574 13.9062C48.2984 13.7812 48.0711 13.5923 47.8922 13.3395C47.716 13.0866 47.628 12.767 47.628 12.3807V5.88636ZM54.1589 14.1364C53.5254 14.1364 52.9785 13.9972 52.5183 13.7188C52.058 13.4375 51.7043 13.0455 51.4572 12.5426C51.21 12.0369 51.0864 11.4489 51.0864 10.7784C51.0864 10.1051 51.21 9.51278 51.4572 9.00142C51.7072 8.49006 52.0538 8.09091 52.4969 7.80398C52.943 7.5142 53.4643 7.36932 54.0609 7.36932C54.4103 7.36932 54.7526 7.42756 55.0879 7.54403C55.4259 7.66051 55.7313 7.84659 56.004 8.10227C56.2768 8.35795 56.4941 8.6946 56.656 9.11222C56.818 9.52983 56.8989 10.0412 56.8989 10.6463V11.081H51.8066V10.1861H55.808C55.808 9.82812 55.7356 9.50852 55.5907 9.22727C55.4487 8.94602 55.2469 8.72443 54.9856 8.5625C54.7242 8.40057 54.416 8.3196 54.0609 8.3196C53.6745 8.3196 53.3393 8.41477 53.0552 8.60511C52.7711 8.79545 52.5523 9.04261 52.3989 9.34659C52.2484 9.65057 52.1731 9.97869 52.1731 10.331V10.9574C52.1731 11.4347 52.2555 11.8395 52.4202 12.1719C52.5879 12.5043 52.8208 12.7571 53.1191 12.9304C53.4174 13.1009 53.7654 13.1861 54.1631 13.1861C54.4217 13.1861 54.6546 13.1491 54.862 13.0753C55.0722 13.0014 55.254 12.8906 55.4075 12.7429C55.5609 12.5952 55.6788 12.4105 55.7612 12.1889L56.8009 12.4489C56.7015 12.7841 56.5296 13.0795 56.2853 13.3352C56.0438 13.5881 55.7413 13.7855 55.3776 13.9276C55.0168 14.0668 54.6106 14.1364 54.1589 14.1364ZM58.2768 14V7.45455H59.3294V8.46023H59.3975C59.5169 8.12784 59.7313 7.8608 60.041 7.65909C60.3507 7.45455 60.7001 7.35227 61.0893 7.35227C61.1632 7.35227 61.2555 7.35511 61.3663 7.3608C61.4771 7.36364 61.5623 7.3679 61.622 7.37358V8.45597C61.5822 8.4446 61.4998 8.4304 61.3748 8.41335C61.2527 8.39347 61.1248 8.38352 60.9913 8.38352C60.6788 8.38352 60.4004 8.44886 60.1561 8.57955C59.9117 8.71023 59.7186 8.89062 59.5765 9.12074C59.4345 9.34801 59.3635 9.60795 59.3635 9.90057V14H58.2768Z" fill="white"/>
</g>
</g>
<defs>
<filter id="filter0_d_1_305" x="0" y="0" width="69" height="20" filterUnits="userSpaceOnUse" color-interpolation-filters="sRGB">
<feFlood flood-opacity="0" result="BackgroundImageFix"/>
<feColorMatrix in="SourceAlpha" type="matrix" values="0 0 0 0 0 0 0 0 0 0 0 0 0 0 0 0 0 0 127 0" result="hardAlpha"/>
<feMorphology radius="1" operator="dilate" in="SourceAlpha" result="effect1_dropShadow_1_305"/>
<feOffset/>
<feComposite in2="hardAlpha" operator="out"/>
<feColorMatrix type="matrix" values="0 0 0 0 0.223529 0 0 0 0 0.376471 0 0 0 0 0.976471 0 0 0 0.8 0"/>
<feBlend mode="normal" in2="BackgroundImageFix" result="effect1_dropShadow_1_305"/>
<feBlend mode="normal" in="SourceGraphic" in2="effect1_dropShadow_1_305" result="shape"/>
</filter>
<clipPath id="clip0_1_305">
<rect x="1" y="1" width="67" height="18" rx="9" fill="white"/>
</clipPath>
</defs>
</svg>
